<?xml version="1.0" standalone="no"?>
<!DOCTYPE svg PUBLIC "-//W3C//DTD SVG 20010904//EN"
 "http://www.w3.org/TR/2001/REC-SVG-20010904/DTD/svg10.dtd">
<svg version="1.0" xmlns="http://www.w3.org/2000/svg"
 width="256.000000pt" height="256.000000pt" viewBox="0 0 256.000000 256.000000"
 preserveAspectRatio="xMidYMid meet">

<g transform="translate(0.000000,256.000000) scale(0.100000,-0.100000)"
fill="white" stroke="none">
<path d="M555 2545 c-142 -32 -257 -95 -355 -195 -79 -81 -122 -152 -164 -267
l-31 -88 0 -715 0 -715 27 -80 c38 -112 91 -197 174 -279 84 -84 153 -127 271
-170 l88 -31 715 0 715 0 80 27 c112 38 197 91 279 174 83 82 136 167 174 279
l27 80 0 715 0 715 -27 80 c-38 112 -91 197 -174 279 -82 83 -167 136 -279
174 l-80 27 -690 2 c-550 1 -702 -1 -750 -12z m250 -526 c17 -5 86 -23 155
-40 155 -37 256 -67 430 -126 412 -139 634 -272 711 -425 79 -157 1 -314 -235
-469 -88 -58 -317 -176 -421 -217 -27 -11 -84 -33 -125 -50 -174 -70 -476
-175 -542 -187 -48 -9 -97 8 -133 45 -54 56 -41 160 27 204 13 8 91 37 173 65
317 106 445 157 650 257 190 93 208 103 280 162 87 69 85 80 -20 149 -151 99
-475 221 -820 308 -33 9 -82 22 -110 30 -27 8 -74 19 -103 25 -67 12 -108 43
-128 95 -27 72 2 138 81 180 30 16 66 14 130 -6z"/>
</g>
</svg>
